<svg width="185" height="185" viewBox="0 0 185 185" fill="none" xmlns="http://www.w3.org/2000/svg">
<rect width="185" height="185" fill="#22191C"/>
<path d="M32.4322 132.485C27.2393 132.485 23.3994 131.571 20.9127 129.742C18.4259 127.914 17.1825 124.988 17.1825 120.965C17.1825 119.356 17.3288 117.784 17.6214 116.248L28.2632 55.688H40.8799L30.238 115.699C30.0917 116.577 30.0186 117.235 30.0186 117.674C30.0186 118.991 30.3843 119.978 31.1157 120.636C31.9202 121.295 33.2002 121.624 34.9555 121.624H40.2216L38.3565 132.485H32.4322Z" fill="#FF437B"/>
<path d="M64.26 133.363C58.9208 133.363 54.6787 132.192 51.5337 129.852C48.4618 127.511 46.9259 124.403 46.9259 120.527C46.9259 119.941 46.999 119.064 47.1453 117.894L47.8036 113.834C48.6812 109.007 50.912 105.277 54.4959 102.644C58.1529 100.011 62.7607 98.6943 68.3193 98.6943H75.1213C77.3155 98.6943 79.6926 98.9869 82.2525 99.572C84.8855 100.157 87.0797 100.925 88.835 101.876L89.9321 95.0739C90.0784 94.3425 90.1516 93.7939 90.1516 93.4282C90.1516 91.5997 89.5299 90.1735 88.2865 89.1495C87.1163 88.0524 85.5072 87.5039 83.4593 87.5039H74.3534C71.8666 87.5039 69.7821 88.0524 68.0999 89.1495C66.4908 90.2466 65.5034 91.746 65.1377 93.6476H52.8502C53.801 88.4547 56.2147 84.3589 60.0911 81.3601C64.0406 78.3614 68.941 76.862 74.7922 76.862H83.8981C89.6762 76.862 94.2474 78.2151 97.6118 80.9213C101.049 83.5543 102.768 87.1382 102.768 91.6729C102.768 92.6968 102.658 93.8305 102.439 95.0739L95.8565 132.485H84.1175L85.434 125.573C83.1667 127.987 80.7531 129.888 78.1932 131.278C75.6333 132.668 73.1465 133.363 70.7329 133.363H64.26ZM72.1592 123.489C75.0116 123.489 77.7544 122.684 80.3874 121.075C83.0936 119.393 85.1415 117.199 86.5311 114.493L87.0797 111.859C85.9826 110.836 84.3369 110.031 82.1427 109.446C80.0217 108.788 77.7178 108.458 75.231 108.458H68.3193C66.052 108.458 64.1869 109.007 62.7241 110.104C61.2613 111.128 60.3836 112.554 60.0911 114.383L59.4328 117.455C59.3597 117.674 59.3231 118.04 59.3231 118.552C59.3231 120.015 59.9082 121.221 61.0785 122.172C62.3218 123.05 63.9675 123.489 66.0154 123.489H72.1592Z" fill="#DAF277"/>
<path d="M135.483 133.363C132.777 133.363 130.217 132.631 127.803 131.168C125.39 129.706 123.561 127.804 122.318 125.463L121.111 132.485H109.372L122.867 55.688H135.483L130.766 82.7864C132.594 80.9579 134.569 79.5316 136.69 78.5077C138.884 77.4106 141.005 76.862 143.053 76.862H150.404C156.255 76.862 160.863 78.398 164.227 81.4698C167.592 84.4686 169.274 88.5279 169.274 93.6476C169.274 95.2567 169.128 96.7561 168.835 98.1457L166.531 111.201C165.288 118.15 162.618 123.598 158.522 127.548C154.426 131.424 149.307 133.363 143.163 133.363H135.483ZM142.395 122.282C145.394 122.282 147.917 121.221 149.965 119.1C152.086 116.979 153.476 114.127 154.134 110.543L156.218 98.9137C156.365 98.2555 156.438 97.3412 156.438 96.171C156.438 93.6111 155.743 91.5997 154.353 90.1369C152.964 88.6741 151.062 87.9427 148.648 87.9427H141.737C138.445 87.9427 135.483 89.0764 132.85 91.3437C130.29 93.6111 128.535 96.6464 127.584 100.45L125.719 111.201C125.573 114.419 126.377 117.089 128.133 119.21C129.961 121.258 132.302 122.282 135.154 122.282H142.395Z" fill="#67FF92"/>
</svg>
