<svg width="597" height="228" viewBox="0 0 597 228" fill="none" xmlns="http://www.w3.org/2000/svg">
<path d="M554.409 55.0762C554.409 70.7386 543.968 79.5006 538.748 81.9238C533.378 85.8292 526.815 85.7886 524.205 85.2801C529.052 88.2633 535.168 97.9214 520.849 112.688C530.358 112.129 545.46 106.535 545.46 130.587C548.816 123.875 554.409 113.807 573.427 130.587L573.382 130.283C571.169 115.349 569.685 105.341 595.242 94.2297C567.498 92.4398 573.987 76.3305 580.699 68.4997C574.173 71.11 559.779 72.0797 554.409 55.0762Z" fill="#F2F1F0" stroke="black" stroke-width="6"/>
<path d="M52.3748 61.9312L52.366 62.0052C52.7731 67.3589 49.9581 71.8579 48.4997 73.4382C52.6112 71.3692 61.8543 71.2622 65.9351 87.3868C69.5883 80.6058 72.1526 67.8379 88.7037 78.0519C85.51 72.892 87.1107 55.0182 106.734 49.0572C95.3916 44.1834 81.5968 50.8117 84.8252 28.3551C71.8118 46.6866 63.4818 35.3806 60.9434 27.4362C59.9685 33.0353 56.3804 52.5827 42.3992 49.0572C53.1193 55.6729 52.9179 57.3657 52.3748 61.9312Z" fill="#F2F1F0" stroke="black" stroke-width="6"/>
<path d="M386.374 196.141C398.985 197.311 400.172 198.858 401.733 203.243C404.477 207.858 403.954 213.139 403.35 215.203C406.114 211.522 414.347 207.319 425.167 219.951C425.427 212.253 422.051 199.676 441.417 201.471C436.263 198.268 428.574 193.013 443.505 178.953L443.257 178.967C431.067 179.634 422.898 180.081 415.86 158.674C412.347 180.879 399.861 174.451 394.057 168.462C395.671 173.912 400.466 193.087 386.374 196.141Z" fill="#F2F1F0" stroke="black" stroke-width="6"/>
</svg>
