<svg width="51" height="39" viewBox="0 0 51 39" fill="none" xmlns="http://www.w3.org/2000/svg">
<path d="M2.62937 16.7334C1.17714 16.7334 -0.000136705 17.9107 -0.000145787 19.3629C-0.000154867 20.8152 1.17711 21.9924 2.62934 21.9924L2.62936 19.3629L2.62937 16.7334ZM49.8372 21.2226C50.8641 20.1957 50.8641 18.5308 49.8373 17.5039L33.1033 0.769737C32.0764 -0.257154 30.4115 -0.257165 29.3846 0.769714C28.3577 1.79659 28.3577 3.4615 29.3846 4.48839L44.2592 19.3632L29.3844 34.2378C28.3575 35.2647 28.3575 36.9296 29.3844 37.9565C30.4113 38.9834 32.0762 38.9834 33.1031 37.9565L49.8372 21.2226ZM2.62936 19.3629L2.62934 21.9924L47.9779 21.9927L47.9779 19.3632L47.9779 16.7337L2.62937 16.7334L2.62936 19.3629Z" fill="white"/>
</svg>
