<svg width="63" height="63" viewBox="0 0 63 63" fill="none" xmlns="http://www.w3.org/2000/svg">
<path d="M34.5712 0C29.0174 17.2734 29.0176 26.3489 12.3301 30.4272C31.9452 37.7666 31.9452 51.2335 34.5712 62.0656C38.0931 50.648 38.6787 41.5724 62.3922 30.4272C45.1195 24.8851 39.8496 19.6155 34.5712 0Z" fill="white"/>
<path d="M8.08424 0C6.06556 6.27857 6.06561 9.57738 0 11.0597C7.12975 13.7275 7.12975 18.6225 8.08424 22.5598C9.36442 18.4097 9.57725 15.1109 18.1967 11.0597C11.9184 9.04531 10.0028 7.12987 8.08424 0Z" fill="white"/>
<path d="M11.3162 36.0449C9.2975 42.3235 9.29755 45.6223 3.23193 47.1047C10.3617 49.7724 10.3617 54.6674 11.3162 58.6047C12.5964 54.4546 12.8092 51.1558 21.4286 47.1047C15.1503 45.0902 13.2348 43.1748 11.3162 36.0449Z" fill="white"/>
</svg>
